<svg xmlns="http://www.w3.org/2000/svg" viewBox="0 0 72 72"><path fill="#7289da" d="M0 0h72v72H0z"/><path d="M49.3 25.8s-2.6-2.7-8.4-3.1v.9s3.2-.2 7.2 3.7c-3-2.2-7.3-3.5-12-3.5s-9 1.4-12 3.5c4-3.9 7.2-3.7 7.2-3.7v-.9c-5.9.4-8.4 3.1-8.4 3.1-4.7 5.7-4.9 18.3-4.9 18.3 4.2 5.1 9.5 4.4 9.5 4.4l1.9-2.8c-2.5-.7-4.3-2.2-5.4-3.4 3 2.1 7.2 3.4 11.9 3.4s8.9-1.3 11.9-3.4c-1.1 1.2-2.9 2.8-5.4 3.4l1.9 2.8s5.3.6 9.5-4.4c.2 0-.1-12.6-4.5-18.3zM30.4 40.5c-1.7 0-3.1-1.5-3.1-3.2 0-1.8 1.4-3.2 3.1-3.2 1.7 0 3.1 1.5 3.1 3.2s-1.4 3.2-3.1 3.2zm11.2 0c-1.7 0-3.1-1.5-3.1-3.2 0-1.8 1.4-3.2 3.1-3.2 1.7 0 3.1 1.5 3.1 3.2s-1.4 3.2-3.1 3.2z" fill="#fff"/></svg>