<?xml version="1.0" encoding="utf-8"?>
<!-- Generator: Adobe Illustrator 24.2.3, SVG Export Plug-In . SVG Version: 6.00 Build 0)  -->
<svg version="1.1" id="Layer_1" xmlns="http://www.w3.org/2000/svg" xmlns:xlink="http://www.w3.org/1999/xlink" x="0px" y="0px"
	 viewBox="0 0 72 72" style="enable-background:new 0 0 72 72;" xml:space="preserve">
<style type="text/css">
	.st0{fill:#7289DA;}
</style>
<g id="Guides">
</g>
<path class="st0" d="M49.4,26.6c0,0-2.6-2.7-8.4-3.1v0.9c0,0,3.2-0.2,7.2,3.7c-3-2.2-7.3-3.5-12-3.5s-9,1.4-12,3.5
	c4-3.9,7.2-3.7,7.2-3.7v-0.9c-5.9,0.4-8.4,3.1-8.4,3.1c-4.7,5.7-4.9,18.3-4.9,18.3c4.2,5.1,9.5,4.4,9.5,4.4l1.9-2.8
	c-2.5-0.7-4.3-2.2-5.4-3.4c3,2.1,7.2,3.4,11.9,3.4s8.9-1.3,11.9-3.4c-1.1,1.2-2.9,2.8-5.4,3.4l1.9,2.8c0,0,5.3,0.6,9.5-4.4
	C54.1,44.9,53.8,32.3,49.4,26.6z M30.5,41.3c-1.7,0-3.1-1.5-3.1-3.2c0-1.8,1.4-3.2,3.1-3.2c1.7,0,3.1,1.5,3.1,3.2
	S32.2,41.3,30.5,41.3z M41.7,41.3c-1.7,0-3.1-1.5-3.1-3.2c0-1.8,1.4-3.2,3.1-3.2c1.7,0,3.1,1.5,3.1,3.2S43.4,41.3,41.7,41.3z"/>
</svg>
